<svg width="2853" height="1308" viewBox="0 0 2853 1308" version="1.1" xmlns="http://www.w3.org/2000/svg" xmlns:xlink="http://www.w3.org/1999/xlink" xmlns:figma="http://www.figma.com/figma/ns">
<title>Group</title>
<desc>Created using Figma</desc>
<g id="Canvas" transform="translate(1561 721)" figma:type="canvas">
<g id="Group" style="mix-blend-mode:normal;" figma:type="frame">
<g id="Polygon" style="mix-blend-mode:normal;" figma:type="regular-polygon">
<use xlink:href="#path0_stroke" transform="matrix(0.919754 -0.392494 0.392494 0.919754 -586.595 -220.652)" fill="#F4D35E" style="mix-blend-mode:normal;"/>
</g>
<g id="Polygon" style="mix-blend-mode:normal;" figma:type="regular-polygon">
<use xlink:href="#path1_stroke" transform="matrix(0.825035 0.565081 -0.565081 0.825035 82.6199 357)" fill="#F4D35E" style="mix-blend-mode:normal;"/>
</g>
<g id="Polygon" style="mix-blend-mode:normal;" figma:type="regular-polygon">
<use xlink:href="#path2_stroke" transform="matrix(0.997287 0.0736066 -0.0736066 0.997287 599.766 -646.047)" fill="#FFFFFF" style="mix-blend-mode:normal;"/>
</g>
<g id="Ellipse" style="mix-blend-mode:normal;" figma:type="ellipse">
<mask id="mask0_outline_ins">
<use xlink:href="#path3_fill" fill="white" transform="translate(-363 262)"/>
</mask>
<g mask="url(#mask0_outline_ins)">
<use xlink:href="#path4_stroke_2x" transform="translate(-363 262)" fill="#DA4167" style="mix-blend-mode:normal;"/>
</g>
</g>
<g id="Ellipse" style="mix-blend-mode:normal;" figma:type="ellipse">
<mask id="mask1_outline_ins">
<use xlink:href="#path5_fill" fill="white" transform="translate(754 -96.0834)"/>
</mask>
<g mask="url(#mask1_outline_ins)">
<use xlink:href="#path6_stroke_2x" transform="translate(754 -96.0834)" fill="#F4D35E" style="mix-blend-mode:normal;"/>
</g>
</g>
<g id="Ellipse" style="mix-blend-mode:normal;" figma:type="ellipse">
<mask id="mask2_outline_ins">
<use xlink:href="#path7_fill" fill="white" transform="translate(45.4475 -371.377)"/>
</mask>
<g mask="url(#mask2_outline_ins)">
<use xlink:href="#path8_stroke_2x" transform="translate(45.4475 -371.377)" fill="#DA4167" style="mix-blend-mode:normal;"/>
</g>
</g>
<g id="Line" style="mix-blend-mode:normal;" figma:type="line">
<use xlink:href="#path9_stroke" transform="matrix(0.96699 -0.254813 0.254813 0.96699 -401 55.4717)" fill="#36C9C6" style="mix-blend-mode:normal;"/>
</g>
<g id="Line" style="mix-blend-mode:normal;" figma:type="line">
<use xlink:href="#path10_stroke" transform="matrix(0.780084 0.625675 -0.625675 0.780084 63.9475 -643)" fill="#DA4167" style="mix-blend-mode:normal;"/>
</g>
<g id="Polygon" style="mix-blend-mode:normal;" figma:type="regular-polygon">
<use xlink:href="#path11_fill" transform="matrix(0.919518 -0.393049 0.391941 0.919991 54 -92.369)" fill="#ED6A5A" style="mix-blend-mode:normal;"/>
</g>
<g id="Polygon" style="mix-blend-mode:normal;" figma:type="regular-polygon">
<use xlink:href="#path12_fill" transform="matrix(0.919518 -0.393049 0.391941 0.919991 1254 556.8)" fill="#ED6A5A" style="mix-blend-mode:normal;"/>
</g>
<g id="Polygon" style="mix-blend-mode:normal;" figma:type="regular-polygon">
<use xlink:href="#path13_stroke" transform="matrix(0.997278 0.0737288 -0.0734845 0.997296 550.207 -391.722)" fill="#DA4167" style="mix-blend-mode:normal;"/>
</g>
<g id="Ellipse" style="mix-blend-mode:normal;" figma:type="ellipse">
<mask id="mask3_outline_ins">
<use xlink:href="#path14_fill" fill="white" transform="translate(-291 -721)"/>
</mask>
<g mask="url(#mask3_outline_ins)">
<use xlink:href="#path15_stroke_2x" transform="translate(-291 -721)" fill="#36C9C6" style="mix-blend-mode:normal;"/>
</g>
</g>
<g id="Line" style="mix-blend-mode:normal;" figma:type="line">
<use xlink:href="#path16_stroke" transform="matrix(0.779574 0.62631 -0.625039 0.780593 405.501 527)" fill="#FFFFFF" style="mix-blend-mode:normal;"/>
</g>
<g id="Rectangle" style="mix-blend-mode:normal;" figma:type="rounded-rectangle">
<use xlink:href="#path17_stroke" transform="matrix(0.939433 -0.342733 0.342733 0.939433 -602.447 -555.61)" fill="#FFFFFF" style="mix-blend-mode:normal;"/>
</g>
<g id="Rectangle" style="mix-blend-mode:normal;" figma:type="rounded-rectangle">
<use xlink:href="#path18_fill" transform="matrix(0.997892 0.0648976 -0.0648976 0.997892 407.627 149)" fill="#ED6A5A" style="mix-blend-mode:normal;"/>
</g>
<g id="Polygon" style="mix-blend-mode:normal;" figma:type="regular-polygon">
<use xlink:href="#path19_stroke" transform="matrix(-0.324724 0.945809 -0.94557 -0.32542 -1043.46 414.541)" fill="#F4D35E" style="mix-blend-mode:normal;"/>
</g>
<g id="Line" style="mix-blend-mode:normal;" figma:type="line">
<use xlink:href="#path20_stroke" transform="matrix(0.502578 0.864532 -0.864009 0.503477 -935.518 -122.219)" fill="#FFFFFF" style="mix-blend-mode:normal;"/>
</g>
<g id="Rectangle" style="mix-blend-mode:normal;" figma:type="rounded-rectangle">
<use xlink:href="#path21_stroke" transform="matrix(0.202846 0.979211 -0.979114 0.203311 -545.496 558)" fill="#36C9C6" style="mix-blend-mode:normal;"/>
</g>
<g id="Polygon" style="mix-blend-mode:normal;" figma:type="regular-polygon">
<use xlink:href="#path2_stroke" transform="matrix(0.518913 0.854827 -0.854827 0.518913 -932.866 -431)" fill="#36C9C6" style="mix-blend-mode:normal;"/>
</g>
<g id="Polygon" style="mix-blend-mode:normal;" figma:type="regular-polygon">
<use xlink:href="#path22_stroke" transform="matrix(-0.367312 0.930098 -0.930098 -0.367312 -1513.72 -683.079)" fill="#36C9C6" style="mix-blend-mode:normal;"/>
</g>
<g id="Ellipse" style="mix-blend-mode:normal;" figma:type="ellipse">
<use xlink:href="#path7_fill" transform="matrix(0.580426 0.814313 -0.814313 0.580426 -770.87 140.378)" fill="#ED6A5A" style="mix-blend-mode:normal;"/>
</g>
<g id="Rectangle" style="mix-blend-mode:normal;" figma:type="rounded-rectangle">
<use xlink:href="#path23_stroke" transform="matrix(0.526355 0.850265 -0.850265 0.526355 -1159.59 -22.7726)" fill="#36C9C6" style="mix-blend-mode:normal;"/>
</g>
</g>
</g>
<defs>
<path id="path0_stroke" d="M 41.5 0L 45.8301 -2.5C 44.937 -4.04701 43.2863 -5 41.5 -5C 39.7137 -5 38.063 -4.04701 37.1699 -2.5L 41.5 0ZM 77.4401 62.25L 77.4401 67.25C 79.2264 67.25 80.877 66.297 81.7702 64.75C 82.6633 63.203 82.6633 61.297 81.7702 59.75L 77.4401 62.25ZM 5.55995 62.25L 1.22982 59.75C 0.336655 61.297 0.336655 63.203 1.22982 64.75C 2.12298 66.297 3.77362 67.25 5.55995 67.25L 5.55995 62.25ZM 37.1699 2.5L 73.1099 64.75L 81.7702 59.75L 45.8301 -2.5L 37.1699 2.5ZM 77.4401 57.25L 5.55995 57.25L 5.55995 67.25L 77.4401 67.25L 77.4401 57.25ZM 9.89007 64.75L 45.8301 2.5L 37.1699 -2.5L 1.22982 59.75L 9.89007 64.75Z"/>
<path id="path1_stroke" d="M 20.6966 0L 21.9956 -0.75C 21.7276 -1.2141 21.2325 -1.5 20.6966 -1.5C 20.1607 -1.5 19.6655 -1.2141 19.3975 -0.75L 20.6966 0ZM 38.6203 31.0448L 38.6203 32.5448C 39.1562 32.5448 39.6514 32.2589 39.9193 31.7948C 40.1873 31.3307 40.1873 30.7589 39.9193 30.2948L 38.6203 31.0448ZM 2.77281 31.0448L 1.47377 30.2948C 1.20583 30.7589 1.20583 31.3307 1.47377 31.7948C 1.74172 32.2589 2.23691 32.5448 2.77281 32.5448L 2.77281 31.0448ZM 19.3975 0.75L 37.3213 31.7948L 39.9193 30.2948L 21.9956 -0.75L 19.3975 0.75ZM 38.6203 29.5448L 2.77281 29.5448L 2.77281 32.5448L 38.6203 32.5448L 38.6203 29.5448ZM 4.07185 31.7948L 21.9956 0.75L 19.3975 -0.75L 1.47377 30.2948L 4.07185 31.7948Z"/>
<path id="path2_stroke" d="M 20.6966 0L 22.8616 -1.25C 22.415 -2.0235 21.5897 -2.5 20.6966 -2.5C 19.8034 -2.5 18.9781 -2.0235 18.5315 -1.25L 20.6966 0ZM 38.6203 31.0448L 38.6203 33.5448C 39.5135 33.5448 40.3388 33.0683 40.7854 32.2948C 41.2319 31.5213 41.2319 30.5683 40.7854 29.7948L 38.6203 31.0448ZM 2.77281 31.0448L 0.607749 29.7948C 0.161167 30.5683 0.161167 31.5213 0.607749 32.2948C 1.05433 33.0683 1.87965 33.5448 2.77281 33.5448L 2.77281 31.0448ZM 18.5315 1.25L 36.4552 32.2948L 40.7854 29.7948L 22.8616 -1.25L 18.5315 1.25ZM 38.6203 28.5448L 2.77281 28.5448L 2.77281 33.5448L 38.6203 33.5448L 38.6203 28.5448ZM 4.93788 32.2948L 22.8616 1.25L 18.5315 -1.25L 0.607749 29.7948L 4.93788 32.2948Z"/>
<path id="path3_fill" d="M 27 13.5C 27 20.9558 20.9558 27 13.5 27C 6.04416 27 0 20.9558 0 13.5C 0 6.04416 6.04416 0 13.5 0C 20.9558 0 27 6.04416 27 13.5Z"/>
<path id="path4_stroke_2x" d="M 26 13.5C 26 20.4036 20.4036 26 13.5 26L 13.5 28C 21.5081 28 28 21.5081 28 13.5L 26 13.5ZM 13.5 26C 6.59644 26 1 20.4036 1 13.5L -1 13.5C -1 21.5081 5.49187 28 13.5 28L 13.5 26ZM 1 13.5C 1 6.59644 6.59644 1 13.5 1L 13.5 -1C 5.49187 -1 -1 5.49187 -1 13.5L 1 13.5ZM 13.5 1C 20.4036 1 26 6.59644 26 13.5L 28 13.5C 28 5.49187 21.5081 -1 13.5 -1L 13.5 1Z"/>
<path id="path5_fill" d="M 68 34C 68 52.7777 52.7777 68 34 68C 15.2223 68 0 52.7777 0 34C 0 15.2223 15.2223 0 34 0C 52.7777 0 68 15.2223 68 34Z"/>
<path id="path6_stroke_2x" d="M 65 34C 65 51.1208 51.1208 65 34 65L 34 71C 54.4345 71 71 54.4345 71 34L 65 34ZM 34 65C 16.8792 65 3 51.1208 3 34L -3 34C -3 54.4345 13.5655 71 34 71L 34 65ZM 3 34C 3 16.8792 16.8792 3 34 3L 34 -3C 13.5655 -3 -3 13.5655 -3 34L 3 34ZM 34 3C 51.1208 3 65 16.8792 65 34L 71 34C 71 13.5655 54.4345 -3 34 -3L 34 3Z"/>
<path id="path7_fill" d="M 37 18.5C 37 28.7173 28.7173 37 18.5 37C 8.28273 37 0 28.7173 0 18.5C 0 8.28273 8.28273 0 18.5 0C 28.7173 0 37 8.28273 37 18.5Z"/>
<path id="path8_stroke_2x" d="M 27 18.5C 27 23.1944 23.1944 27 18.5 27L 18.5 47C 34.2401 47 47 34.2401 47 18.5L 27 18.5ZM 18.5 27C 13.8056 27 10 23.1944 10 18.5L -10 18.5C -10 34.2401 2.75988 47 18.5 47L 18.5 27ZM 10 18.5C 10 13.8056 13.8056 10 18.5 10L 18.5 -10C 2.75988 -10 -10 2.75988 -10 18.5L 10 18.5ZM 18.5 10C 23.1944 10 27 13.8056 27 18.5L 47 18.5C 47 2.75988 34.2401 -10 18.5 -10L 18.5 10Z"/>
<path id="path9_stroke" d="M 2.5 -5C 1.11929 -5 0 -3.88071 0 -2.5C 0 -1.11929 1.11929 0 2.5 0L 2.5 -5ZM 174.322 0C 175.703 0 176.822 -1.11929 176.822 -2.5C 176.822 -3.88071 175.703 -5 174.322 -5L 174.322 0ZM 2.5 0L 174.322 0L 174.322 -5L 2.5 -5L 2.5 0Z"/>
<path id="path10_stroke" d="M 1 -2C 0.447715 -2 0 -1.55228 0 -1C 0 -0.447715 0.447715 0 1 0L 1 -2ZM 66.9895 0C 67.5418 0 67.9895 -0.447715 67.9895 -1C 67.9895 -1.55228 67.5418 -2 66.9895 -2L 66.9895 0ZM 1 0L 66.9895 0L 66.9895 -2L 1 -2L 1 0Z"/>
<path id="path11_fill" d="M 16.4408 0L 30.6789 24.6896L 2.20264 24.6896L 16.4408 0Z"/>
<path id="path12_fill" d="M 16.4408 0L 30.6789 24.6896L 2.20264 24.6896L 16.4408 0Z"/>
<path id="path13_stroke" d="M 8.19717 0L 10.3631 -1.24845C 9.91678 -2.02283 9.09097 -2.5 8.19717 -2.5C 7.30337 -2.5 6.47756 -2.02283 6.03121 -1.24845L 8.19717 0ZM 15.2961 12.3161L 15.2961 14.8161C 16.189 14.8161 17.014 14.3399 17.4607 13.5668C 17.9074 12.7938 17.908 11.8412 17.4621 11.0676L 15.2961 12.3161ZM 1.09821 12.3161L -1.06774 11.0676C -1.51361 11.8412 -1.5131 12.7938 -1.0664 13.5668C -0.619706 14.3399 0.205368 14.8161 1.09821 14.8161L 1.09821 12.3161ZM 6.03121 1.24845L 13.1302 13.5645L 17.4621 11.0676L 10.3631 -1.24845L 6.03121 1.24845ZM 15.2961 9.81607L 1.09821 9.81607L 1.09821 14.8161L 15.2961 14.8161L 15.2961 9.81607ZM 3.26417 13.5645L 10.3631 1.24845L 6.03121 -1.24845L -1.06774 11.0676L 3.26417 13.5645Z"/>
<path id="path14_fill" d="M 26.9321 13.4886C 26.9321 20.9381 20.9032 26.9771 13.4661 26.9771C 6.02896 26.9771 0 20.9381 0 13.4886C 0 6.03903 6.02896 0 13.4661 0C 20.9032 0 26.9321 6.03903 26.9321 13.4886Z"/>
<path id="path15_stroke_2x" d="M 23.9321 13.4886C 23.9321 19.2859 19.2416 23.9771 13.4661 23.9771L 13.4661 29.9771C 22.5647 29.9771 29.9321 22.5902 29.9321 13.4886L 23.9321 13.4886ZM 13.4661 23.9771C 7.69054 23.9771 3 19.2859 3 13.4886L -3 13.4886C -3 22.5902 4.36739 29.9771 13.4661 29.9771L 13.4661 23.9771ZM 3 13.4886C 3 7.69117 7.69054 3 13.4661 3L 13.4661 -3C 4.36739 -3 -3 4.3869 -3 13.4886L 3 13.4886ZM 13.4661 3C 19.2416 3 23.9321 7.69117 23.9321 13.4886L 29.9321 13.4886C 29.9321 4.3869 22.5647 -3 13.4661 -3L 13.4661 3Z"/>
<path id="path16_stroke" d="M 1 -2C 0.447715 -2 0 -1.55228 0 -1C 0 -0.447715 0.447715 0 1 0L 1 -2ZM 25.9456 0C 26.4979 0 26.9456 -0.447715 26.9456 -1C 26.9456 -1.55228 26.4979 -2 25.9456 -2L 25.9456 0ZM 1 0L 25.9456 0L 25.9456 -2L 1 -2L 1 0Z"/>
<path id="path17_stroke" d="M 0 0L 0 -1C -0.552285 -1 -1 -0.552285 -1 2.22045e-16L 0 0ZM 50.7395 0L 51.7395 0C 51.7395 -0.552285 51.2918 -1 50.7395 -1L 50.7395 0ZM 50.7395 67.7701L 50.7395 68.7701C 51.2918 68.7701 51.7395 68.3224 51.7395 67.7701L 50.7395 67.7701ZM 0 67.7701L -1 67.7701C -1 68.3224 -0.552285 68.7701 2.22045e-16 68.7701L 0 67.7701ZM 0 1L 50.7395 1L 50.7395 -1L 0 -1L 0 1ZM 49.7395 0L 49.7395 67.7701L 51.7395 67.7701L 51.7395 0L 49.7395 0ZM 50.7395 66.7701L 0 66.7701L 0 68.7701L 50.7395 68.7701L 50.7395 66.7701ZM 1 67.7701L 1 0L -1 0L -1 67.7701L 1 67.7701Z"/>
<path id="path18_fill" d="M 0 0L 40.4732 0L 40.4732 40.4732L 0 40.4732L 0 0Z"/>
<path id="path19_stroke" d="M 11.2423 0L 12.5411 -0.75053C 12.273 -1.21433 11.778 -1.5 11.2423 -1.5C 10.7066 -1.5 10.2116 -1.21433 9.94359 -0.75053L 11.2423 0ZM 20.9785 16.8476L 20.9785 18.3476C 21.5145 18.3476 22.0097 18.0616 22.2776 17.5973C 22.5456 17.1331 22.5454 16.5611 22.2772 16.0971L 20.9785 16.8476ZM 1.50619 16.8476L 0.207454 16.0971C -0.0607396 16.5611 -0.0609148 17.1331 0.206994 17.5973C 0.474903 18.0616 0.970178 18.3476 1.50619 18.3476L 1.50619 16.8476ZM 9.94359 0.75053L 19.6797 17.5981L 22.2772 16.0971L 12.5411 -0.75053L 9.94359 0.75053ZM 20.9785 15.3476L 1.50619 15.3476L 1.50619 18.3476L 20.9785 18.3476L 20.9785 15.3476ZM 2.80492 17.5981L 12.5411 0.75053L 9.94359 -0.75053L 0.207454 16.0971L 2.80492 17.5981Z"/>
<path id="path20_stroke" d="M 2.5 -5C 1.11929 -5 0 -3.88071 0 -2.5C 0 -1.11929 1.11929 0 2.5 0L 2.5 -5ZM 93.5324 0C 94.9131 0 96.0324 -1.11929 96.0324 -2.5C 96.0324 -3.88071 94.9131 -5 93.5324 -5L 93.5324 0ZM 2.5 0L 93.5324 0L 93.5324 -5L 2.5 -5L 2.5 0Z"/>
<path id="path21_stroke" d="M 0 0L 0 -2.5C -1.38071 -2.5 -2.5 -1.38071 -2.5 5.55112e-16L 0 0ZM 21.9866 0L 24.4866 0C 24.4866 -1.38071 23.3673 -2.5 21.9866 -2.5L 21.9866 0ZM 21.9866 21.9625L 21.9866 24.4625C 23.3673 24.4625 24.4866 23.3432 24.4866 21.9625L 21.9866 21.9625ZM 0 21.9625L -2.5 21.9625C -2.5 23.3432 -1.38071 24.4625 5.55112e-16 24.4625L 0 21.9625ZM 0 2.5L 21.9866 2.5L 21.9866 -2.5L 0 -2.5L 0 2.5ZM 19.4866 0L 19.4866 21.9625L 24.4866 21.9625L 24.4866 0L 19.4866 0ZM 21.9866 19.4625L 0 19.4625L 0 24.4625L 21.9866 24.4625L 21.9866 19.4625ZM 2.5 21.9625L 2.5 0L -2.5 0L -2.5 21.9625L 2.5 21.9625Z"/>
<path id="path22_stroke" d="M 20.6966 0L 22.8616 -1.25C 22.415 -2.0235 21.5897 -2.5 20.6966 -2.5C 19.8034 -2.5 18.9781 -2.0235 18.5315 -1.25L 20.6966 0ZM 38.6203 31.0448L 38.6203 33.5448C 39.5135 33.5448 40.3388 33.0683 40.7854 32.2948C 41.2319 31.5213 41.2319 30.5683 40.7854 29.7948L 38.6203 31.0448ZM 2.77281 31.0448L 0.607749 29.7948C 0.161167 30.5683 0.161167 31.5213 0.607749 32.2948C 1.05433 33.0683 1.87965 33.5448 2.77281 33.5448L 2.77281 31.0448ZM 18.5315 1.25L 36.4552 32.2948L 40.7854 29.7948L 22.8616 -1.25L 18.5315 1.25ZM 38.6203 28.5448L 2.77281 28.5448L 2.77281 33.5448L 38.6203 33.5448L 38.6203 28.5448ZM 4.93788 32.2948L 22.8616 1.25L 18.5315 -1.25L 0.607749 29.7948L 4.93788 32.2948Z"/>
<path id="path23_stroke" d="M 0 0L 0 -2.5C -1.38071 -2.5 -2.5 -1.38071 -2.5 5.55112e-16L 0 0ZM 40.4732 0L 42.9732 0C 42.9732 -1.38071 41.8539 -2.5 40.4732 -2.5L 40.4732 0ZM 40.4732 40.4732L 40.4732 42.9732C 41.8539 42.9732 42.9732 41.8539 42.9732 40.4732L 40.4732 40.4732ZM 0 40.4732L -2.5 40.4732C -2.5 41.8539 -1.38071 42.9732 5.55112e-16 42.9732L 0 40.4732ZM 0 2.5L 40.4732 2.5L 40.4732 -2.5L 0 -2.5L 0 2.5ZM 37.9732 0L 37.9732 40.4732L 42.9732 40.4732L 42.9732 0L 37.9732 0ZM 40.4732 37.9732L 0 37.9732L 0 42.9732L 40.4732 42.9732L 40.4732 37.9732ZM 2.5 40.4732L 2.5 0L -2.5 0L -2.5 40.4732L 2.5 40.4732Z"/>
</defs>
</svg>
